<svg width="591" height="653" viewBox="0 0 591 653" fill="none" xmlns="http://www.w3.org/2000/svg">
<g filter="url(#filter0_d_607_146)">
<path d="M100 317.604C100 204.058 212.791 96 294.512 96C376.234 96 490.476 204.058 490.476 317.604C490.476 431.149 376.234 548.3 294.512 548.3C212.791 548.3 100 431.149 100 317.604Z" fill="#FFC107"/>
</g>
<g filter="url(#filter1_d_607_146)">
<path d="M297.407 158.619C400.332 158.619 498.285 246.361 498.285 310.488C498.285 374.613 400.332 464.259 297.407 464.259C194.481 464.259 88.2852 374.613 88.2852 310.488C88.2852 246.361 194.481 158.619 297.407 158.619Z" fill="#FFBF00"/>
</g>
<g filter="url(#filter2_d_607_146)">
<path d="M294.984 91.0957C392.717 91.0957 485.727 177.817 485.727 241.198C485.727 304.578 392.717 393.182 294.984 393.182C197.25 393.182 96.4121 304.578 96.4121 241.198C96.4121 177.817 197.25 91.0957 294.984 91.0957Z" fill="#FFBF00"/>
</g>
<g filter="url(#filter3_d_607_146)">
<path d="M293.115 81.8545C362.659 81.8545 428.844 147.355 428.844 195.226C428.844 243.097 362.659 310.019 293.115 310.019C223.57 310.019 151.816 243.097 151.816 195.226C151.816 147.355 223.57 81.8545 293.115 81.8545Z" fill="#FFBF00"/>
</g>
<g filter="url(#filter4_d_607_146)">
<path d="M292.265 78.2998C340.669 78.2998 386.732 122.375 386.732 154.587C386.732 186.8 340.669 231.831 292.265 231.831C243.863 231.831 193.922 186.8 193.922 154.587C193.922 122.375 243.863 78.2998 292.265 78.2998Z" fill="#F7F0DD"/>
</g>
<defs>
<filter id="filter0_d_607_146" x="0" y="0" width="590.477" height="652.3" filterUnits="userSpaceOnUse" color-interpolation-filters="sRGB">
<feFlood flood-opacity="0" result="BackgroundImageFix"/>
<feColorMatrix in="SourceAlpha" type="matrix" values="0 0 0 0 0 0 0 0 0 0 0 0 0 0 0 0 0 0 127 0" result="hardAlpha"/>
<feOffset dy="4"/>
<feGaussianBlur stdDeviation="50"/>
<feComposite in2="hardAlpha" operator="out"/>
<feColorMatrix type="matrix" values="0 0 0 0 0 0 0 0 0 0 0 0 0 0 0 0 0 0 0.15 0"/>
<feBlend mode="normal" in2="BackgroundImageFix" result="effect1_dropShadow_607_146"/>
<feBlend mode="normal" in="SourceGraphic" in2="effect1_dropShadow_607_146" result="shape"/>
</filter>
<filter id="filter1_d_607_146" x="63.2852" y="137.619" width="460" height="355.64" filterUnits="userSpaceOnUse" color-interpolation-filters="sRGB">
<feFlood flood-opacity="0" result="BackgroundImageFix"/>
<feColorMatrix in="SourceAlpha" type="matrix" values="0 0 0 0 0 0 0 0 0 0 0 0 0 0 0 0 0 0 127 0" result="hardAlpha"/>
<feOffset dy="4"/>
<feGaussianBlur stdDeviation="12.5"/>
<feComposite in2="hardAlpha" operator="out"/>
<feColorMatrix type="matrix" values="0 0 0 0 0 0 0 0 0 0 0 0 0 0 0 0 0 0 0.3 0"/>
<feBlend mode="normal" in2="BackgroundImageFix" result="effect1_dropShadow_607_146"/>
<feBlend mode="normal" in="SourceGraphic" in2="effect1_dropShadow_607_146" result="shape"/>
</filter>
<filter id="filter2_d_607_146" x="71.4121" y="70.0957" width="439.314" height="352.087" filterUnits="userSpaceOnUse" color-interpolation-filters="sRGB">
<feFlood flood-opacity="0" result="BackgroundImageFix"/>
<feColorMatrix in="SourceAlpha" type="matrix" values="0 0 0 0 0 0 0 0 0 0 0 0 0 0 0 0 0 0 127 0" result="hardAlpha"/>
<feOffset dy="4"/>
<feGaussianBlur stdDeviation="12.5"/>
<feComposite in2="hardAlpha" operator="out"/>
<feColorMatrix type="matrix" values="0 0 0 0 0 0 0 0 0 0 0 0 0 0 0 0 0 0 0.3 0"/>
<feBlend mode="normal" in2="BackgroundImageFix" result="effect1_dropShadow_607_146"/>
<feBlend mode="normal" in="SourceGraphic" in2="effect1_dropShadow_607_146" result="shape"/>
</filter>
<filter id="filter3_d_607_146" x="126.816" y="60.8545" width="327.027" height="278.164" filterUnits="userSpaceOnUse" color-interpolation-filters="sRGB">
<feFlood flood-opacity="0" result="BackgroundImageFix"/>
<feColorMatrix in="SourceAlpha" type="matrix" values="0 0 0 0 0 0 0 0 0 0 0 0 0 0 0 0 0 0 127 0" result="hardAlpha"/>
<feOffset dy="4"/>
<feGaussianBlur stdDeviation="12.5"/>
<feComposite in2="hardAlpha" operator="out"/>
<feColorMatrix type="matrix" values="0 0 0 0 0 0 0 0 0 0 0 0 0 0 0 0 0 0 0.3 0"/>
<feBlend mode="normal" in2="BackgroundImageFix" result="effect1_dropShadow_607_146"/>
<feBlend mode="normal" in="SourceGraphic" in2="effect1_dropShadow_607_146" result="shape"/>
</filter>
<filter id="filter4_d_607_146" x="168.922" y="57.2998" width="242.811" height="203.531" filterUnits="userSpaceOnUse" color-interpolation-filters="sRGB">
<feFlood flood-opacity="0" result="BackgroundImageFix"/>
<feColorMatrix in="SourceAlpha" type="matrix" values="0 0 0 0 0 0 0 0 0 0 0 0 0 0 0 0 0 0 127 0" result="hardAlpha"/>
<feOffset dy="4"/>
<feGaussianBlur stdDeviation="12.5"/>
<feComposite in2="hardAlpha" operator="out"/>
<feColorMatrix type="matrix" values="0 0 0 0 0 0 0 0 0 0 0 0 0 0 0 0 0 0 0.3 0"/>
<feBlend mode="normal" in2="BackgroundImageFix" result="effect1_dropShadow_607_146"/>
<feBlend mode="normal" in="SourceGraphic" in2="effect1_dropShadow_607_146" result="shape"/>
</filter>
</defs>
</svg>
