<svg width="2261" height="653" viewBox="0 0 2261 653" fill="none" xmlns="http://www.w3.org/2000/svg">
<g filter="url(#filter0_d_607_158)">
<path d="M100 317.604C100 204.058 212.791 96 294.512 96C376.234 96 490.476 204.058 490.476 317.604C490.476 431.149 376.234 548.3 294.512 548.3C212.791 548.3 100 431.149 100 317.604Z" fill="#FFC107"/>
</g>
<g filter="url(#filter1_d_607_158)">
<path d="M297.407 158.619C400.332 158.619 498.285 246.361 498.285 310.488C498.285 374.613 400.332 464.259 297.407 464.259C194.481 464.259 88.2852 374.613 88.2852 310.488C88.2852 246.361 194.481 158.619 297.407 158.619Z" fill="#FFBF00"/>
</g>
<g filter="url(#filter2_d_607_158)">
<path d="M294.984 91.0957C392.717 91.0957 485.727 177.817 485.727 241.198C485.727 304.578 392.717 393.182 294.984 393.182C197.25 393.182 96.4121 304.578 96.4121 241.198C96.4121 177.817 197.25 91.0957 294.984 91.0957Z" fill="#FFBF00"/>
</g>
<g filter="url(#filter3_d_607_158)">
<path d="M293.115 81.8545C362.659 81.8545 428.844 147.355 428.844 195.226C428.844 243.097 362.659 310.019 293.115 310.019C223.57 310.019 151.816 243.097 151.816 195.226C151.816 147.355 223.57 81.8545 293.115 81.8545Z" fill="#FFBF00"/>
</g>
<g filter="url(#filter4_d_607_158)">
<path d="M292.265 78.2998C340.669 78.2998 386.732 122.375 386.732 154.587C386.732 186.8 340.669 231.831 292.265 231.831C243.863 231.831 193.922 186.8 193.922 154.587C193.922 122.375 243.863 78.2998 292.265 78.2998Z" fill="#F7F0DD"/>
</g>
<path d="M775.021 268.663V141.845H845.622V460.027H775.021V333.209H666.439V460.027H596.285V141.845H666.439V268.663H775.021ZM900 203.209C874.083 203.209 860.231 184.118 860.231 160.027C860.231 136.391 874.083 117.3 900 117.3C925.917 117.3 940.216 136.391 940.216 160.027C940.216 184.118 925.917 203.209 900 203.209ZM933.96 460.027H866.04V217.754H933.96V460.027ZM1094.2 217.754H1168.82L1074.54 460.027L1052.2 508.89L1029.86 460.027L935.573 217.754H1010.64L1052.2 340.936L1094.2 217.754ZM1257.42 217.754C1338.3 217.754 1365.11 278.209 1365.11 334.118V366.845H1222.12C1229.27 389.573 1249.38 401.845 1295.85 401.845C1311.49 401.845 1330.25 400.482 1352.6 397.754V460.482C1328.47 464.118 1306.12 465.936 1285.57 465.936C1197.99 465.936 1149.73 429.573 1149.73 341.391C1149.73 277.3 1178.77 217.754 1257.42 217.754ZM1221.22 316.391H1302.1C1299.42 298.663 1288.7 278.663 1261.44 278.663C1239.1 278.663 1226.59 293.663 1221.22 316.391Z" fill="black"/>
<path d="M1467.85 397.754L1589.71 398.208V460.027H1362.2V407.299L1491.79 208.663H1367.12V141.845H1589.71L1704.55 86.2998L1589.71 208.663L1467.85 397.754ZM1704.55 215.481C1779.17 215.481 1819.39 270.481 1819.39 338.663C1819.39 406.845 1778.72 462.299 1704.55 462.299C1629.93 462.299 1589.71 406.845 1589.71 338.663C1589.71 270.481 1629.93 215.481 1704.55 215.481ZM1704.55 398.208C1734.04 398.208 1750.13 371.39 1750.13 338.663C1750.13 305.936 1734.04 279.572 1704.55 279.572C1675.06 279.572 1658.97 305.936 1658.97 338.663C1658.97 371.39 1675.06 398.208 1704.55 398.208ZM1931.92 215.481C2005.65 215.481 2037.38 263.208 2037.38 328.663V460.027H1969.46V328.663C1969.46 302.299 1959.63 280.027 1931.92 280.027C1904.22 280.027 1894.39 302.299 1894.39 328.663V460.027H1826.47V328.663C1826.47 263.208 1858.64 215.481 1931.92 215.481ZM2153.22 217.754C2234.1 217.754 2260.91 278.208 2260.91 334.117V366.845H2117.92C2125.07 389.572 2145.18 401.845 2191.65 401.845C2207.29 401.845 2226.06 400.481 2248.4 397.754V460.481C2224.27 464.117 2201.93 465.936 2181.37 465.936C2093.79 465.936 2045.53 429.572 2045.53 341.39C2045.53 277.299 2074.58 217.754 2153.22 217.754ZM2117.03 316.39H2197.91C2195.22 298.663 2184.5 278.663 2157.24 278.663C2134.9 278.663 2122.39 293.663 2117.03 316.39Z" fill="#EFB404"/>
<defs>
<filter id="filter0_d_607_158" x="0" y="0" width="590.477" height="652.3" filterUnits="userSpaceOnUse" color-interpolation-filters="sRGB">
<feFlood flood-opacity="0" result="BackgroundImageFix"/>
<feColorMatrix in="SourceAlpha" type="matrix" values="0 0 0 0 0 0 0 0 0 0 0 0 0 0 0 0 0 0 127 0" result="hardAlpha"/>
<feOffset dy="4"/>
<feGaussianBlur stdDeviation="50"/>
<feComposite in2="hardAlpha" operator="out"/>
<feColorMatrix type="matrix" values="0 0 0 0 0 0 0 0 0 0 0 0 0 0 0 0 0 0 0.15 0"/>
<feBlend mode="normal" in2="BackgroundImageFix" result="effect1_dropShadow_607_158"/>
<feBlend mode="normal" in="SourceGraphic" in2="effect1_dropShadow_607_158" result="shape"/>
</filter>
<filter id="filter1_d_607_158" x="63.2852" y="137.619" width="460" height="355.64" filterUnits="userSpaceOnUse" color-interpolation-filters="sRGB">
<feFlood flood-opacity="0" result="BackgroundImageFix"/>
<feColorMatrix in="SourceAlpha" type="matrix" values="0 0 0 0 0 0 0 0 0 0 0 0 0 0 0 0 0 0 127 0" result="hardAlpha"/>
<feOffset dy="4"/>
<feGaussianBlur stdDeviation="12.5"/>
<feComposite in2="hardAlpha" operator="out"/>
<feColorMatrix type="matrix" values="0 0 0 0 0 0 0 0 0 0 0 0 0 0 0 0 0 0 0.3 0"/>
<feBlend mode="normal" in2="BackgroundImageFix" result="effect1_dropShadow_607_158"/>
<feBlend mode="normal" in="SourceGraphic" in2="effect1_dropShadow_607_158" result="shape"/>
</filter>
<filter id="filter2_d_607_158" x="71.4121" y="70.0957" width="439.314" height="352.087" filterUnits="userSpaceOnUse" color-interpolation-filters="sRGB">
<feFlood flood-opacity="0" result="BackgroundImageFix"/>
<feColorMatrix in="SourceAlpha" type="matrix" values="0 0 0 0 0 0 0 0 0 0 0 0 0 0 0 0 0 0 127 0" result="hardAlpha"/>
<feOffset dy="4"/>
<feGaussianBlur stdDeviation="12.5"/>
<feComposite in2="hardAlpha" operator="out"/>
<feColorMatrix type="matrix" values="0 0 0 0 0 0 0 0 0 0 0 0 0 0 0 0 0 0 0.3 0"/>
<feBlend mode="normal" in2="BackgroundImageFix" result="effect1_dropShadow_607_158"/>
<feBlend mode="normal" in="SourceGraphic" in2="effect1_dropShadow_607_158" result="shape"/>
</filter>
<filter id="filter3_d_607_158" x="126.816" y="60.8545" width="327.027" height="278.164" filterUnits="userSpaceOnUse" color-interpolation-filters="sRGB">
<feFlood flood-opacity="0" result="BackgroundImageFix"/>
<feColorMatrix in="SourceAlpha" type="matrix" values="0 0 0 0 0 0 0 0 0 0 0 0 0 0 0 0 0 0 127 0" result="hardAlpha"/>
<feOffset dy="4"/>
<feGaussianBlur stdDeviation="12.5"/>
<feComposite in2="hardAlpha" operator="out"/>
<feColorMatrix type="matrix" values="0 0 0 0 0 0 0 0 0 0 0 0 0 0 0 0 0 0 0.3 0"/>
<feBlend mode="normal" in2="BackgroundImageFix" result="effect1_dropShadow_607_158"/>
<feBlend mode="normal" in="SourceGraphic" in2="effect1_dropShadow_607_158" result="shape"/>
</filter>
<filter id="filter4_d_607_158" x="168.922" y="57.2998" width="242.811" height="203.531" filterUnits="userSpaceOnUse" color-interpolation-filters="sRGB">
<feFlood flood-opacity="0" result="BackgroundImageFix"/>
<feColorMatrix in="SourceAlpha" type="matrix" values="0 0 0 0 0 0 0 0 0 0 0 0 0 0 0 0 0 0 127 0" result="hardAlpha"/>
<feOffset dy="4"/>
<feGaussianBlur stdDeviation="12.5"/>
<feComposite in2="hardAlpha" operator="out"/>
<feColorMatrix type="matrix" values="0 0 0 0 0 0 0 0 0 0 0 0 0 0 0 0 0 0 0.3 0"/>
<feBlend mode="normal" in2="BackgroundImageFix" result="effect1_dropShadow_607_158"/>
<feBlend mode="normal" in="SourceGraphic" in2="effect1_dropShadow_607_158" result="shape"/>
</filter>
</defs>
</svg>
